<?xml version="1.0" encoding="UTF-8"?>
<svg xmlns="http://www.w3.org/2000/svg" xmlns:xlink="http://www.w3.org/1999/xlink" width="100" height="109" viewBox="0 0 100 109" version="1.1">
<defs>
<linearGradient id="linear0" gradientUnits="userSpaceOnUse" x1="506" y1="757.81" x2="506" y2="51.81" gradientTransform="matrix(0.137363,0,0,0.136935,-32.417582,-7.094585)">
<stop offset="0" style="stop-color:rgb(70.196078%,70.196078%,70.196078%);stop-opacity:0.25098;"/>
<stop offset="0.54" style="stop-color:rgb(70.196078%,70.196078%,70.196078%);stop-opacity:0.101961;"/>
<stop offset="1" style="stop-color:rgb(70.196078%,70.196078%,70.196078%);stop-opacity:0.0509804;"/>
</linearGradient>
<filter id="alpha" filterUnits="objectBoundingBox" x="0%" y="0%" width="100%" height="100%">
  <feColorMatrix type="matrix" in="SourceGraphic" values="0 0 0 0 1 0 0 0 0 1 0 0 0 0 1 0 0 0 1 0"/>
</filter>
<mask id="mask0">
  <g filter="url(#alpha)">
<rect x="0" y="0" width="100" height="109" style="fill:rgb(0%,0%,0%);fill-opacity:0.501961;stroke:none;"/>
  </g>
</mask>
<clipPath id="clip1">
  <rect x="0" y="0" width="101" height="110"/>
</clipPath>
<g id="surface5" clip-path="url(#clip1)">
<path style=" stroke:none;fill-rule:nonzero;fill:rgb(42.352941%,38.823529%,100%);fill-opacity:1;" d="M 49.121094 24.457031 L 68.726562 24.457031 L 68.726562 25.945312 L 49.121094 25.945312 Z M 49.121094 24.457031 "/>
</g>
<mask id="mask1">
  <g filter="url(#alpha)">
<rect x="0" y="0" width="100" height="109" style="fill:rgb(0%,0%,0%);fill-opacity:0.501961;stroke:none;"/>
  </g>
</mask>
<clipPath id="clip2">
  <rect x="0" y="0" width="101" height="110"/>
</clipPath>
<g id="surface8" clip-path="url(#clip2)">
<path style=" stroke:none;fill-rule:nonzero;fill:rgb(42.352941%,38.823529%,100%);fill-opacity:1;" d="M 11.636719 47.050781 L 31.242188 47.050781 L 31.242188 48.539062 L 11.636719 48.539062 Z M 11.636719 47.050781 "/>
</g>
<mask id="mask2">
  <g filter="url(#alpha)">
<rect x="0" y="0" width="100" height="109" style="fill:rgb(0%,0%,0%);fill-opacity:0.501961;stroke:none;"/>
  </g>
</mask>
<clipPath id="clip3">
  <rect x="0" y="0" width="101" height="110"/>
</clipPath>
<g id="surface11" clip-path="url(#clip3)">
<path style=" stroke:none;fill-rule:nonzero;fill:rgb(41.176471%,94.117647%,68.235294%);fill-opacity:1;" d="M 11.636719 50.03125 L 62.8125 50.03125 L 62.8125 51.523438 L 11.636719 51.523438 Z M 11.636719 50.03125 "/>
</g>
<mask id="mask3">
  <g filter="url(#alpha)">
<rect x="0" y="0" width="100" height="109" style="fill:rgb(0%,0%,0%);fill-opacity:0.501961;stroke:none;"/>
  </g>
</mask>
<clipPath id="clip4">
  <rect x="0" y="0" width="101" height="110"/>
</clipPath>
<g id="surface14" clip-path="url(#clip4)">
<path style=" stroke:none;fill-rule:nonzero;fill:rgb(42.352941%,38.823529%,100%);fill-opacity:1;" d="M 11.636719 61.460938 L 31.242188 61.460938 L 31.242188 62.949219 L 11.636719 62.949219 Z M 11.636719 61.460938 "/>
</g>
<mask id="mask4">
  <g filter="url(#alpha)">
<rect x="0" y="0" width="100" height="109" style="fill:rgb(0%,0%,0%);fill-opacity:0.501961;stroke:none;"/>
  </g>
</mask>
<clipPath id="clip5">
  <rect x="0" y="0" width="101" height="110"/>
</clipPath>
<g id="surface17" clip-path="url(#clip5)">
<path style=" stroke:none;fill-rule:nonzero;fill:rgb(42.352941%,38.823529%,100%);fill-opacity:1;" d="M 11.636719 75.871094 L 31.242188 75.871094 L 31.242188 77.359375 L 11.636719 77.359375 Z M 11.636719 75.871094 "/>
</g>
<linearGradient id="linear1" gradientUnits="userSpaceOnUse" x1="49.46" y1="96.5" x2="49.46" y2="3.5" gradientTransform="matrix(0.137363,0,0,0.136935,0,0)">
<stop offset="0" style="stop-color:rgb(70.196078%,70.196078%,70.196078%);stop-opacity:0.25098;"/>
<stop offset="0.54" style="stop-color:rgb(70.196078%,70.196078%,70.196078%);stop-opacity:0.101961;"/>
<stop offset="1" style="stop-color:rgb(70.196078%,70.196078%,70.196078%);stop-opacity:0.0509804;"/>
</linearGradient>
<mask id="mask5">
  <g filter="url(#alpha)">
<rect x="0" y="0" width="100" height="109" style="fill:rgb(0%,0%,0%);fill-opacity:0.501961;stroke:none;"/>
  </g>
</mask>
<linearGradient id="linear2" gradientUnits="userSpaceOnUse" x1="627.87" y1="796.38" x2="627.87" y2="596.12" gradientTransform="matrix(0.137363,0,0,0.136935,0,0)">
<stop offset="0" style="stop-color:rgb(50.196078%,50.196078%,50.196078%);stop-opacity:0.25098;"/>
<stop offset="0.54" style="stop-color:rgb(50.196078%,50.196078%,50.196078%);stop-opacity:0.121569;"/>
<stop offset="1" style="stop-color:rgb(50.196078%,50.196078%,50.196078%);stop-opacity:0.101961;"/>
</linearGradient>
<clipPath id="clip6">
  <rect x="0" y="0" width="101" height="110"/>
</clipPath>
<g id="surface20" clip-path="url(#clip6)">
<path style=" stroke:none;fill-rule:nonzero;fill:url(#linear2);" d="M 100 95.339844 C 100 102.914062 93.84375 109.050781 86.246094 109.050781 C 78.648438 109.050781 72.492188 102.914062 72.492188 95.339844 C 72.492188 87.769531 78.648438 81.628906 86.246094 81.628906 C 93.84375 81.628906 100 87.769531 100 95.339844 Z M 100 95.339844 "/>
</g>
<mask id="mask6">
  <g filter="url(#alpha)">
<rect x="0" y="0" width="100" height="109" style="fill:rgb(0%,0%,0%);fill-opacity:0.501961;stroke:none;"/>
  </g>
</mask>
<linearGradient id="linear3" gradientUnits="userSpaceOnUse" x1="627.87" y1="746.82" x2="627.87" y2="645.68" gradientTransform="matrix(0.137363,0,0,0.136935,0,0)">
<stop offset="0" style="stop-color:rgb(50.196078%,50.196078%,50.196078%);stop-opacity:0.25098;"/>
<stop offset="0.54" style="stop-color:rgb(50.196078%,50.196078%,50.196078%);stop-opacity:0.121569;"/>
<stop offset="1" style="stop-color:rgb(50.196078%,50.196078%,50.196078%);stop-opacity:0.101961;"/>
</linearGradient>
<clipPath id="clip7">
  <rect x="0" y="0" width="101" height="110"/>
</clipPath>
<g id="surface23" clip-path="url(#clip7)">
<path style=" stroke:none;fill-rule:nonzero;fill:url(#linear3);" d="M 93.191406 93.792969 L 87.796875 93.792969 L 87.796875 88.414062 L 84.695312 88.414062 L 84.695312 93.792969 L 79.300781 93.792969 L 79.300781 96.886719 L 84.695312 96.886719 L 84.695312 102.265625 L 87.796875 102.265625 L 87.796875 96.886719 L 93.191406 96.886719 Z M 93.191406 93.792969 "/>
</g>
<linearGradient id="linear4" gradientUnits="userSpaceOnUse" x1="611" y1="802.81" x2="611" y2="96.81" gradientTransform="matrix(0.137363,0,0,0.136935,-32.417582,-7.094585)">
<stop offset="0" style="stop-color:rgb(70.196078%,70.196078%,70.196078%);stop-opacity:0.25098;"/>
<stop offset="0.54" style="stop-color:rgb(70.196078%,70.196078%,70.196078%);stop-opacity:0.101961;"/>
<stop offset="1" style="stop-color:rgb(70.196078%,70.196078%,70.196078%);stop-opacity:0.0509804;"/>
</linearGradient>
<mask id="mask7">
  <g filter="url(#alpha)">
<rect x="0" y="0" width="100" height="109" style="fill:rgb(0%,0%,0%);fill-opacity:0.501961;stroke:none;"/>
  </g>
</mask>
<clipPath id="clip8">
  <rect x="0" y="0" width="101" height="110"/>
</clipPath>
<g id="surface26" clip-path="url(#clip8)">
<path style=" stroke:none;fill-rule:nonzero;fill:rgb(42.352941%,38.823529%,100%);fill-opacity:1;" d="M 63.542969 30.617188 L 83.148438 30.617188 L 83.148438 32.109375 L 63.542969 32.109375 Z M 63.542969 30.617188 "/>
</g>
<mask id="mask8">
  <g filter="url(#alpha)">
<rect x="0" y="0" width="100" height="109" style="fill:rgb(0%,0%,0%);fill-opacity:0.501961;stroke:none;"/>
  </g>
</mask>
<clipPath id="clip9">
  <rect x="0" y="0" width="101" height="110"/>
</clipPath>
<g id="surface29" clip-path="url(#clip9)">
<path style=" stroke:none;fill-rule:nonzero;fill:rgb(42.352941%,38.823529%,100%);fill-opacity:1;" d="M 26.058594 53.210938 L 45.667969 53.210938 L 45.667969 54.703125 L 26.058594 54.703125 Z M 26.058594 53.210938 "/>
</g>
<mask id="mask9">
  <g filter="url(#alpha)">
<rect x="0" y="0" width="100" height="109" style="fill:rgb(0%,0%,0%);fill-opacity:0.501961;stroke:none;"/>
  </g>
</mask>
<clipPath id="clip10">
  <rect x="0" y="0" width="101" height="110"/>
</clipPath>
<g id="surface32" clip-path="url(#clip10)">
<path style=" stroke:none;fill-rule:nonzero;fill:rgb(41.176471%,94.117647%,68.235294%);fill-opacity:1;" d="M 26.058594 56.191406 L 77.234375 56.191406 L 77.234375 57.683594 L 26.058594 57.683594 Z M 26.058594 56.191406 "/>
</g>
<mask id="mask10">
  <g filter="url(#alpha)">
<rect x="0" y="0" width="100" height="109" style="fill:rgb(0%,0%,0%);fill-opacity:0.501961;stroke:none;"/>
  </g>
</mask>
<clipPath id="clip11">
  <rect x="0" y="0" width="101" height="110"/>
</clipPath>
<g id="surface35" clip-path="url(#clip11)">
<path style=" stroke:none;fill-rule:nonzero;fill:rgb(42.352941%,38.823529%,100%);fill-opacity:1;" d="M 26.058594 67.621094 L 45.667969 67.621094 L 45.667969 69.113281 L 26.058594 69.113281 Z M 26.058594 67.621094 "/>
</g>
<mask id="mask11">
  <g filter="url(#alpha)">
<rect x="0" y="0" width="100" height="109" style="fill:rgb(0%,0%,0%);fill-opacity:0.501961;stroke:none;"/>
  </g>
</mask>
<clipPath id="clip12">
  <rect x="0" y="0" width="101" height="110"/>
</clipPath>
<g id="surface38" clip-path="url(#clip12)">
<path style=" stroke:none;fill-rule:nonzero;fill:rgb(42.352941%,38.823529%,100%);fill-opacity:1;" d="M 26.058594 82.03125 L 45.667969 82.03125 L 45.667969 83.523438 L 26.058594 83.523438 Z M 26.058594 82.03125 "/>
</g>
<linearGradient id="linear5" gradientUnits="userSpaceOnUse" x1="154.46" y1="141.5" x2="154.46" y2="48.5" gradientTransform="matrix(0.137363,0,0,0.136935,0,0)">
<stop offset="0" style="stop-color:rgb(70.196078%,70.196078%,70.196078%);stop-opacity:0.25098;"/>
<stop offset="0.54" style="stop-color:rgb(70.196078%,70.196078%,70.196078%);stop-opacity:0.101961;"/>
<stop offset="1" style="stop-color:rgb(70.196078%,70.196078%,70.196078%);stop-opacity:0.0509804;"/>
</linearGradient>
</defs>
<g id="surface1">
<path style=" stroke:none;fill-rule:nonzero;fill:url(#linear0);" d="M 56.867188 88.050781 C 56.867188 80.960938 63.890625 74.425781 71 74.425781 C 72.089844 74.425781 73.144531 74.152344 74.15625 74.40625 C 74.171875 74.09375 74.179688 72.277344 74.179688 71.964844 L 74.179688 0 L 12.636719 0 L 0 12.941406 L 0 96.675781 L 58.105469 96.675781 C 56.855469 94.699219 56.867188 90.558594 56.867188 88.050781 Z M 56.867188 88.050781 "/>
<path style=" stroke:none;fill-rule:nonzero;fill:rgb(98.823529%,98.823529%,98.823529%);fill-opacity:1;" d="M 55.769531 89.417969 C 55.769531 80.570312 62.964844 73.398438 71.839844 73.398438 C 72.324219 73.398438 72.800781 73.421875 73.28125 73.460938 L 73.28125 36.3125 L 1.164062 36.3125 L 1.164062 95.03125 L 56.785156 95.03125 C 56.109375 93.238281 55.765625 91.335938 55.769531 89.417969 Z M 55.769531 89.417969 "/>
<path style=" stroke:none;fill-rule:nonzero;fill:rgb(98.823529%,98.823529%,98.823529%);fill-opacity:1;" d="M 73.226562 36.863281 L 0.949219 36.863281 L 0.949219 12.941406 L 12.636719 0.753906 L 73.226562 0.753906 Z M 73.226562 36.863281 "/>
<path style=" stroke:none;fill-rule:nonzero;fill:rgb(87.843137%,87.843137%,87.843137%);fill-opacity:1;" d="M 49.121094 8.023438 L 68.726562 8.023438 L 68.726562 9.515625 L 49.121094 9.515625 Z M 49.121094 8.023438 "/>
<path style=" stroke:none;fill-rule:nonzero;fill:rgb(87.843137%,87.843137%,87.843137%);fill-opacity:1;" d="M 49.121094 13.5 L 68.726562 13.5 L 68.726562 14.992188 L 49.121094 14.992188 Z M 49.121094 13.5 "/>
<path style=" stroke:none;fill-rule:nonzero;fill:rgb(87.843137%,87.843137%,87.843137%);fill-opacity:1;" d="M 49.121094 18.976562 L 68.726562 18.976562 L 68.726562 20.46875 L 49.121094 20.46875 Z M 49.121094 18.976562 "/>
<use xlink:href="#surface5" mask="url(#mask0)"/>
<path style=" stroke:none;fill-rule:nonzero;fill:rgb(87.843137%,87.843137%,87.843137%);fill-opacity:1;" d="M 49.121094 29.933594 L 68.726562 29.933594 L 68.726562 31.421875 L 49.121094 31.421875 Z M 49.121094 29.933594 "/>
<path style=" stroke:none;fill-rule:nonzero;fill:rgb(87.843137%,87.843137%,87.843137%);fill-opacity:1;" d="M 49.121094 35.410156 L 68.726562 35.410156 L 68.726562 36.902344 L 49.121094 36.902344 Z M 49.121094 35.410156 "/>
<use xlink:href="#surface8" mask="url(#mask1)"/>
<path style=" stroke:none;fill-rule:nonzero;fill:rgb(87.843137%,87.843137%,87.843137%);fill-opacity:1;" d="M 11.636719 53.011719 L 31.242188 53.011719 L 31.242188 54.503906 L 11.636719 54.503906 Z M 11.636719 53.011719 "/>
<use xlink:href="#surface11" mask="url(#mask2)"/>
<use xlink:href="#surface14" mask="url(#mask3)"/>
<path style=" stroke:none;fill-rule:nonzero;fill:rgb(87.843137%,87.843137%,87.843137%);fill-opacity:1;" d="M 11.636719 67.421875 L 31.242188 67.421875 L 31.242188 68.914062 L 11.636719 68.914062 Z M 11.636719 67.421875 "/>
<path style=" stroke:none;fill-rule:nonzero;fill:rgb(87.843137%,87.843137%,87.843137%);fill-opacity:1;" d="M 11.636719 64.441406 L 62.8125 64.441406 L 62.8125 65.929688 L 11.636719 65.929688 Z M 11.636719 64.441406 "/>
<use xlink:href="#surface17" mask="url(#mask4)"/>
<path style=" stroke:none;fill-rule:nonzero;fill:rgb(87.843137%,87.843137%,87.843137%);fill-opacity:1;" d="M 11.636719 81.832031 L 31.242188 81.832031 L 31.242188 83.324219 L 11.636719 83.324219 Z M 11.636719 81.832031 "/>
<path style=" stroke:none;fill-rule:nonzero;fill:rgb(87.843137%,87.843137%,87.843137%);fill-opacity:1;" d="M 11.636719 78.851562 L 53.589844 78.851562 L 53.589844 80.34375 L 11.636719 80.34375 Z M 11.636719 78.851562 "/>
<path style=" stroke:none;fill-rule:nonzero;fill:rgb(42.352941%,38.823529%,100%);fill-opacity:1;" d="M 42.582031 38.480469 L 6.867188 38.480469 L 6.867188 7.394531 L 8.105469 5.886719 L 42.582031 5.886719 Z M 42.582031 38.480469 "/>
<path style=" stroke:none;fill-rule:nonzero;fill:url(#linear1);" d="M 0.675781 13.214844 L 12.910156 13.214844 L 12.910156 0.480469 Z M 0.675781 13.214844 "/>
<path style=" stroke:none;fill-rule:nonzero;fill:rgb(96.078431%,96.078431%,96.078431%);fill-opacity:1;" d="M 0.949219 12.941406 L 12.636719 12.941406 L 12.636719 0.753906 Z M 0.949219 12.941406 "/>
<use xlink:href="#surface20" mask="url(#mask5)"/>
<path style=" stroke:none;fill-rule:nonzero;fill:rgb(22.745098%,82.352941%,62.352941%);fill-opacity:1;" d="M 99.121094 95.339844 C 99.121094 102.429688 93.355469 108.175781 86.246094 108.175781 C 79.136719 108.175781 73.371094 102.429688 73.371094 95.339844 C 73.371094 88.253906 79.136719 82.507812 86.246094 82.507812 C 93.355469 82.507812 99.121094 88.253906 99.121094 95.339844 Z M 99.121094 95.339844 "/>
<use xlink:href="#surface23" mask="url(#mask6)"/>
<path style=" stroke:none;fill-rule:nonzero;fill:rgb(100%,100%,100%);fill-opacity:1;" d="M 84.925781 89.453125 L 87.566406 89.453125 L 87.566406 101.226562 L 84.925781 101.226562 Z M 84.925781 89.453125 "/>
<path style=" stroke:none;fill-rule:nonzero;fill:rgb(100%,100%,100%);fill-opacity:1;" d="M 92.152344 94.027344 L 92.152344 96.65625 L 80.34375 96.65625 L 80.34375 94.027344 Z M 92.152344 94.027344 "/>
<path style=" stroke:none;fill-rule:nonzero;fill:url(#linear4);" d="M 71.292969 94.210938 C 71.292969 87.125 78.3125 80.589844 85.421875 80.589844 C 86.511719 80.589844 87.566406 80.316406 88.582031 80.566406 C 88.59375 80.257812 88.601562 78.4375 88.601562 78.125 L 88.601562 6.160156 L 27.058594 6.160156 L 14.421875 19.101562 L 14.421875 102.839844 L 72.527344 102.839844 C 71.277344 100.859375 71.292969 96.722656 71.292969 94.210938 Z M 71.292969 94.210938 "/>
<path style=" stroke:none;fill-rule:nonzero;fill:rgb(100%,100%,100%);fill-opacity:1;" d="M 70.191406 95.582031 C 70.191406 86.730469 77.386719 79.558594 86.265625 79.558594 C 86.75 79.558594 87.226562 79.582031 87.703125 79.625 L 87.703125 42.476562 L 15.589844 42.476562 L 15.589844 101.195312 L 71.207031 101.195312 C 70.535156 99.398438 70.191406 97.496094 70.191406 95.582031 Z M 70.191406 95.582031 "/>
<path style=" stroke:none;fill-rule:nonzero;fill:rgb(100%,100%,100%);fill-opacity:1;" d="M 87.648438 43.023438 L 15.371094 43.023438 L 15.371094 19.101562 L 27.058594 6.914062 L 87.648438 6.914062 Z M 87.648438 43.023438 "/>
<path style=" stroke:none;fill-rule:nonzero;fill:rgb(87.843137%,87.843137%,87.843137%);fill-opacity:1;" d="M 63.542969 14.183594 L 83.148438 14.183594 L 83.148438 15.675781 L 63.542969 15.675781 Z M 63.542969 14.183594 "/>
<path style=" stroke:none;fill-rule:nonzero;fill:rgb(87.843137%,87.843137%,87.843137%);fill-opacity:1;" d="M 63.542969 19.664062 L 83.148438 19.664062 L 83.148438 21.152344 L 63.542969 21.152344 Z M 63.542969 19.664062 "/>
<path style=" stroke:none;fill-rule:nonzero;fill:rgb(87.843137%,87.843137%,87.843137%);fill-opacity:1;" d="M 63.542969 25.140625 L 83.148438 25.140625 L 83.148438 26.632812 L 63.542969 26.632812 Z M 63.542969 25.140625 "/>
<use xlink:href="#surface26" mask="url(#mask7)"/>
<path style=" stroke:none;fill-rule:nonzero;fill:rgb(87.843137%,87.843137%,87.843137%);fill-opacity:1;" d="M 63.542969 36.09375 L 83.148438 36.09375 L 83.148438 37.585938 L 63.542969 37.585938 Z M 63.542969 36.09375 "/>
<path style=" stroke:none;fill-rule:nonzero;fill:rgb(87.843137%,87.843137%,87.843137%);fill-opacity:1;" d="M 63.542969 41.570312 L 83.148438 41.570312 L 83.148438 43.0625 L 63.542969 43.0625 Z M 63.542969 41.570312 "/>
<use xlink:href="#surface29" mask="url(#mask8)"/>
<path style=" stroke:none;fill-rule:nonzero;fill:rgb(87.843137%,87.843137%,87.843137%);fill-opacity:1;" d="M 26.058594 59.171875 L 45.667969 59.171875 L 45.667969 60.664062 L 26.058594 60.664062 Z M 26.058594 59.171875 "/>
<use xlink:href="#surface32" mask="url(#mask9)"/>
<use xlink:href="#surface35" mask="url(#mask10)"/>
<path style=" stroke:none;fill-rule:nonzero;fill:rgb(87.843137%,87.843137%,87.843137%);fill-opacity:1;" d="M 26.058594 73.585938 L 45.667969 73.585938 L 45.667969 75.074219 L 26.058594 75.074219 Z M 26.058594 73.585938 "/>
<path style=" stroke:none;fill-rule:nonzero;fill:rgb(87.843137%,87.843137%,87.843137%);fill-opacity:1;" d="M 26.058594 70.601562 L 77.234375 70.601562 L 77.234375 72.09375 L 26.058594 72.09375 Z M 26.058594 70.601562 "/>
<use xlink:href="#surface38" mask="url(#mask11)"/>
<path style=" stroke:none;fill-rule:nonzero;fill:rgb(87.843137%,87.843137%,87.843137%);fill-opacity:1;" d="M 26.058594 87.996094 L 45.667969 87.996094 L 45.667969 89.484375 L 26.058594 89.484375 Z M 26.058594 87.996094 "/>
<path style=" stroke:none;fill-rule:nonzero;fill:rgb(87.843137%,87.843137%,87.843137%);fill-opacity:1;" d="M 26.058594 85.011719 L 68.011719 85.011719 L 68.011719 86.503906 L 26.058594 86.503906 Z M 26.058594 85.011719 "/>
<path style=" stroke:none;fill-rule:nonzero;fill:rgb(42.352941%,38.823529%,100%);fill-opacity:1;" d="M 57.003906 44.640625 L 21.292969 44.640625 L 21.292969 13.554688 L 22.527344 12.050781 L 57.003906 12.050781 Z M 57.003906 44.640625 "/>
<path style=" stroke:none;fill-rule:nonzero;fill:url(#linear5);" d="M 15.097656 19.375 L 27.335938 19.375 L 27.335938 6.640625 Z M 15.097656 19.375 "/>
<path style=" stroke:none;fill-rule:nonzero;fill:rgb(98.823529%,98.823529%,98.823529%);fill-opacity:1;" d="M 15.371094 19.101562 L 27.058594 19.101562 L 27.058594 6.914062 Z M 15.371094 19.101562 "/>
</g>
</svg>
