<?xml version="1.0" encoding="UTF-8"?>
<svg xmlns="http://www.w3.org/2000/svg" xmlns:xlink="http://www.w3.org/1999/xlink" width="110" height="102" viewBox="0 0 110 102" version="1.1">
<defs>
<filter id="alpha" filterUnits="objectBoundingBox" x="0%" y="0%" width="100%" height="100%">
  <feColorMatrix type="matrix" in="SourceGraphic" values="0 0 0 0 1 0 0 0 0 1 0 0 0 0 1 0 0 0 1 0"/>
</filter>
<mask id="mask0">
  <g filter="url(#alpha)">
<rect x="0" y="0" width="110" height="102" style="fill:rgb(0%,0%,0%);fill-opacity:0.501961;stroke:none;"/>
  </g>
</mask>
<linearGradient id="linear0" gradientUnits="userSpaceOnUse" x1="378.37" y1="732.81" x2="378.37" y2="130.21" gradientTransform="matrix(0.130641,0,0,0.130937,0,-0.000000000000007443)">
<stop offset="0" style="stop-color:rgb(50.196078%,50.196078%,50.196078%);stop-opacity:0.25098;"/>
<stop offset="0.54" style="stop-color:rgb(50.196078%,50.196078%,50.196078%);stop-opacity:0.121569;"/>
<stop offset="1" style="stop-color:rgb(50.196078%,50.196078%,50.196078%);stop-opacity:0.101961;"/>
</linearGradient>
<clipPath id="clip1">
  <rect width="110" height="103"/>
</clipPath>
<g id="surface6" clip-path="url(#clip1)">
<path style=" stroke:none;fill-rule:nonzero;fill:url(#linear0);" d="M 20.136719 17.050781 L 78.722656 17.050781 L 78.722656 95.953125 L 20.136719 95.953125 Z M 20.136719 17.050781 "/>
</g>
<mask id="mask1">
  <g filter="url(#alpha)">
<rect x="0" y="0" width="110" height="102" style="fill:rgb(0%,0%,0%);fill-opacity:0.701961;stroke:none;"/>
  </g>
</mask>
<clipPath id="clip2">
  <rect width="110" height="103"/>
</clipPath>
<g id="surface9" clip-path="url(#clip2)">
<path style=" stroke:none;fill-rule:nonzero;fill:rgb(42.352941%,38.823529%,100%);fill-opacity:1;" d="M 25.324219 24.082031 L 44.855469 24.082031 L 44.855469 24.695312 L 25.324219 24.695312 Z M 25.324219 24.082031 "/>
</g>
<mask id="mask2">
  <g filter="url(#alpha)">
<rect x="0" y="0" width="110" height="102" style="fill:rgb(0%,0%,0%);fill-opacity:0.501961;stroke:none;"/>
  </g>
</mask>
<linearGradient id="linear1" gradientUnits="userSpaceOnUse" x1="274.44" y1="409.32" x2="274.44" y2="248.16" gradientTransform="matrix(0.130641,0,0,0.130937,0,-0.000000000000007443)">
<stop offset="0" style="stop-color:rgb(50.196078%,50.196078%,50.196078%);stop-opacity:0.25098;"/>
<stop offset="0.54" style="stop-color:rgb(50.196078%,50.196078%,50.196078%);stop-opacity:0.121569;"/>
<stop offset="1" style="stop-color:rgb(50.196078%,50.196078%,50.196078%);stop-opacity:0.101961;"/>
</linearGradient>
<clipPath id="clip3">
  <rect width="110" height="103"/>
</clipPath>
<g id="surface12" clip-path="url(#clip3)">
<path style=" stroke:none;fill-rule:nonzero;fill:url(#linear1);" d="M 25.480469 32.492188 L 46.226562 32.492188 L 46.226562 53.59375 L 25.480469 53.59375 Z M 25.480469 32.492188 "/>
</g>
<mask id="mask3">
  <g filter="url(#alpha)">
<rect x="0" y="0" width="110" height="102" style="fill:rgb(0%,0%,0%);fill-opacity:0.501961;stroke:none;"/>
  </g>
</mask>
<linearGradient id="linear2" gradientUnits="userSpaceOnUse" x1="274.44" y1="361.44" x2="274.44" y2="261.01" gradientTransform="matrix(0.130641,0,0,0.130937,0,-0.000000000000007443)">
<stop offset="0" style="stop-color:rgb(50.196078%,50.196078%,50.196078%);stop-opacity:0.25098;"/>
<stop offset="0.54" style="stop-color:rgb(50.196078%,50.196078%,50.196078%);stop-opacity:0.121569;"/>
<stop offset="1" style="stop-color:rgb(50.196078%,50.196078%,50.196078%);stop-opacity:0.101961;"/>
</linearGradient>
<clipPath id="clip4">
  <rect width="110" height="103"/>
</clipPath>
<g id="surface15" clip-path="url(#clip4)">
<path style=" stroke:none;fill-rule:nonzero;fill:url(#linear2);" d="M 26.328125 34.175781 L 45.378906 34.175781 L 45.378906 47.324219 L 26.328125 47.324219 Z M 26.328125 34.175781 "/>
</g>
<clipPath id="clip5">
  <path d="M 26.460938 34.328125 L 45.246094 34.328125 L 45.246094 47.019531 L 26.460938 47.019531 Z M 26.460938 34.328125 "/>
</clipPath>
<mask id="mask4">
  <g filter="url(#alpha)">
<rect x="0" y="0" width="110" height="102" style="fill:rgb(0%,0%,0%);fill-opacity:0.4;stroke:none;"/>
  </g>
</mask>
<clipPath id="clip6">
  <rect width="110" height="103"/>
</clipPath>
<g id="surface18" clip-path="url(#clip6)">
<path style=" stroke:none;fill-rule:nonzero;fill:rgb(42.352941%,38.823529%,100%);fill-opacity:1;" d="M 24.867188 46.5625 L 29.597656 39.222656 L 31.582031 42.433594 L 35.851562 38 L 39.515625 42.433594 L 42.71875 35.859375 L 50.957031 49.007812 L 24.257812 48.089844 Z M 24.867188 46.5625 "/>
</g>
<mask id="mask5">
  <g filter="url(#alpha)">
<rect x="0" y="0" width="110" height="102" style="fill:rgb(0%,0%,0%);fill-opacity:0.4;stroke:none;"/>
  </g>
</mask>
<clipPath id="clip7">
  <rect width="110" height="103"/>
</clipPath>
<g id="surface21" clip-path="url(#clip7)">
<path style=" stroke:none;fill-rule:nonzero;fill:rgb(42.352941%,38.823529%,100%);fill-opacity:1;" d="M 29.902344 36.164062 C 29.902344 36.921875 29.289062 37.539062 28.53125 37.539062 C 27.769531 37.539062 27.15625 36.921875 27.15625 36.164062 C 27.15625 35.402344 27.769531 34.789062 28.53125 34.789062 C 29.289062 34.789062 29.902344 35.402344 29.902344 36.164062 Z M 29.902344 36.164062 "/>
</g>
<mask id="mask6">
  <g filter="url(#alpha)">
<rect x="0" y="0" width="110" height="102" style="fill:rgb(0%,0%,0%);fill-opacity:0.501961;stroke:none;"/>
  </g>
</mask>
<linearGradient id="linear3" gradientUnits="userSpaceOnUse" x1="274.44" y1="616.03" x2="274.44" y2="454.87" gradientTransform="matrix(0.130641,0,0,0.130937,0,-0.000000000000007443)">
<stop offset="0" style="stop-color:rgb(50.196078%,50.196078%,50.196078%);stop-opacity:0.25098;"/>
<stop offset="0.54" style="stop-color:rgb(50.196078%,50.196078%,50.196078%);stop-opacity:0.121569;"/>
<stop offset="1" style="stop-color:rgb(50.196078%,50.196078%,50.196078%);stop-opacity:0.101961;"/>
</linearGradient>
<clipPath id="clip8">
  <rect width="110" height="103"/>
</clipPath>
<g id="surface24" clip-path="url(#clip8)">
<path style=" stroke:none;fill-rule:nonzero;fill:url(#linear3);" d="M 25.480469 59.558594 L 46.226562 59.558594 L 46.226562 80.660156 L 25.480469 80.660156 Z M 25.480469 59.558594 "/>
</g>
<mask id="mask7">
  <g filter="url(#alpha)">
<rect x="0" y="0" width="110" height="102" style="fill:rgb(0%,0%,0%);fill-opacity:0.501961;stroke:none;"/>
  </g>
</mask>
<linearGradient id="linear4" gradientUnits="userSpaceOnUse" x1="274.44" y1="568.15" x2="274.44" y2="467.72" gradientTransform="matrix(0.130641,0,0,0.130937,0,-0.000000000000007443)">
<stop offset="0" style="stop-color:rgb(50.196078%,50.196078%,50.196078%);stop-opacity:0.25098;"/>
<stop offset="0.54" style="stop-color:rgb(50.196078%,50.196078%,50.196078%);stop-opacity:0.121569;"/>
<stop offset="1" style="stop-color:rgb(50.196078%,50.196078%,50.196078%);stop-opacity:0.101961;"/>
</linearGradient>
<clipPath id="clip9">
  <rect width="110" height="103"/>
</clipPath>
<g id="surface27" clip-path="url(#clip9)">
<path style=" stroke:none;fill-rule:nonzero;fill:url(#linear4);" d="M 26.328125 61.242188 L 45.378906 61.242188 L 45.378906 74.390625 L 26.328125 74.390625 Z M 26.328125 61.242188 "/>
</g>
<clipPath id="clip10">
  <path d="M 26.460938 61.394531 L 45.246094 61.394531 L 45.246094 74.085938 L 26.460938 74.085938 Z M 26.460938 61.394531 "/>
</clipPath>
<mask id="mask8">
  <g filter="url(#alpha)">
<rect x="0" y="0" width="110" height="102" style="fill:rgb(0%,0%,0%);fill-opacity:0.4;stroke:none;"/>
  </g>
</mask>
<clipPath id="clip11">
  <rect width="110" height="103"/>
</clipPath>
<g id="surface30" clip-path="url(#clip11)">
<path style=" stroke:none;fill-rule:nonzero;fill:rgb(74.117647%,74.117647%,74.117647%);fill-opacity:1;" d="M 24.867188 73.628906 L 29.597656 66.285156 L 31.582031 69.5 L 35.851562 65.0625 L 39.515625 69.5 L 42.71875 62.921875 L 50.957031 76.074219 L 24.257812 75.15625 Z M 24.867188 73.628906 "/>
</g>
<mask id="mask9">
  <g filter="url(#alpha)">
<rect x="0" y="0" width="110" height="102" style="fill:rgb(0%,0%,0%);fill-opacity:0.4;stroke:none;"/>
  </g>
</mask>
<clipPath id="clip12">
  <rect width="110" height="103"/>
</clipPath>
<g id="surface33" clip-path="url(#clip12)">
<path style=" stroke:none;fill-rule:nonzero;fill:rgb(74.117647%,74.117647%,74.117647%);fill-opacity:1;" d="M 29.902344 63.230469 C 29.902344 63.988281 29.289062 64.605469 28.53125 64.605469 C 27.769531 64.605469 27.15625 63.988281 27.15625 63.230469 C 27.15625 62.46875 27.769531 61.851562 28.53125 61.851562 C 29.289062 61.851562 29.902344 62.46875 29.902344 63.230469 Z M 29.902344 63.230469 "/>
</g>
<mask id="mask10">
  <g filter="url(#alpha)">
<rect x="0" y="0" width="110" height="102" style="fill:rgb(0%,0%,0%);fill-opacity:0.501961;stroke:none;"/>
  </g>
</mask>
<linearGradient id="linear5" gradientUnits="userSpaceOnUse" x1="688.76" y1="765.86" x2="688.76" y2="163.26" gradientTransform="matrix(0.128136,0.0255221,-0.0254645,0.128426,-11.28262,-19.67193)">
<stop offset="0" style="stop-color:rgb(50.196078%,50.196078%,50.196078%);stop-opacity:0.25098;"/>
<stop offset="0.54" style="stop-color:rgb(50.196078%,50.196078%,50.196078%);stop-opacity:0.121569;"/>
<stop offset="1" style="stop-color:rgb(50.196078%,50.196078%,50.196078%);stop-opacity:0.101961;"/>
</linearGradient>
<clipPath id="clip13">
  <rect width="110" height="103"/>
</clipPath>
<g id="surface36" clip-path="url(#clip13)">
<path style=" stroke:none;fill-rule:nonzero;fill:url(#linear5);" d="M 28.738281 90.539062 L 44.085938 13.152344 L 101.546875 24.597656 L 86.199219 101.984375 Z M 28.738281 90.539062 "/>
</g>
<mask id="mask11">
  <g filter="url(#alpha)">
<rect x="0" y="0" width="110" height="102" style="fill:rgb(0%,0%,0%);fill-opacity:0.701961;stroke:none;"/>
  </g>
</mask>
<clipPath id="clip14">
  <rect width="110" height="103"/>
</clipPath>
<g id="surface39" clip-path="url(#clip14)">
<path style=" stroke:none;fill-rule:nonzero;fill:rgb(42.352941%,38.823529%,100%);fill-opacity:1;" d="M 35.378906 82.195312 L 46.75 84.460938 L 46.628906 85.058594 L 35.257812 82.796875 Z M 35.378906 82.195312 "/>
</g>
<mask id="mask12">
  <g filter="url(#alpha)">
<rect x="0" y="0" width="110" height="102" style="fill:rgb(0%,0%,0%);fill-opacity:0.701961;stroke:none;"/>
  </g>
</mask>
<clipPath id="clip15">
  <rect width="110" height="103"/>
</clipPath>
<g id="surface42" clip-path="url(#clip15)">
<path style=" stroke:none;fill-rule:nonzero;fill:rgb(42.352941%,38.823529%,100%);fill-opacity:1;" d="M 47.300781 22.054688 L 67.054688 25.988281 L 66.933594 26.585938 L 47.183594 22.652344 Z M 47.300781 22.054688 "/>
</g>
<mask id="mask13">
  <g filter="url(#alpha)">
<rect x="0" y="0" width="110" height="102" style="fill:rgb(0%,0%,0%);fill-opacity:0.701961;stroke:none;"/>
  </g>
</mask>
<clipPath id="clip16">
  <rect width="110" height="103"/>
</clipPath>
<g id="surface45" clip-path="url(#clip16)">
<path style=" stroke:none;fill-rule:nonzero;fill:rgb(22.745098%,82.352941%,62.352941%);fill-opacity:1;" d="M 45.933594 28.953125 L 54.613281 30.679688 L 54.496094 31.28125 L 45.816406 29.550781 Z M 45.933594 28.953125 "/>
</g>
<mask id="mask14">
  <g filter="url(#alpha)">
<rect x="0" y="0" width="110" height="102" style="fill:rgb(0%,0%,0%);fill-opacity:0.501961;stroke:none;"/>
  </g>
</mask>
<linearGradient id="linear6" gradientUnits="userSpaceOnUse" x1="688.18" y1="568.49" x2="688.18" y2="409.67" gradientTransform="matrix(0.128136,0.0255221,-0.0254645,0.128426,-11.283104,-19.672308)">
<stop offset="0" style="stop-color:rgb(50.196078%,50.196078%,50.196078%);stop-opacity:0.25098;"/>
<stop offset="0.54" style="stop-color:rgb(50.196078%,50.196078%,50.196078%);stop-opacity:0.121569;"/>
<stop offset="1" style="stop-color:rgb(50.196078%,50.196078%,50.196078%);stop-opacity:0.101961;"/>
</linearGradient>
<clipPath id="clip17">
  <rect width="110" height="103"/>
</clipPath>
<g id="surface48" clip-path="url(#clip17)">
<path style=" stroke:none;fill-rule:nonzero;fill:url(#linear6);" d="M 44.6875 67.371094 L 48.730469 46.972656 L 84.195312 54.035156 L 80.152344 74.433594 Z M 44.6875 67.371094 "/>
</g>
<linearGradient id="linear7" gradientUnits="userSpaceOnUse" x1="810.6" y1="767.54" x2="810.6" y2="362.71" gradientTransform="matrix(0.130641,0,0,0.130937,-23.384798,-7.926932)">
<stop offset="0" style="stop-color:rgb(70.196078%,70.196078%,70.196078%);stop-opacity:0.25098;"/>
<stop offset="0.54" style="stop-color:rgb(70.196078%,70.196078%,70.196078%);stop-opacity:0.101961;"/>
<stop offset="1" style="stop-color:rgb(70.196078%,70.196078%,70.196078%);stop-opacity:0.0509804;"/>
</linearGradient>
<linearGradient id="linear8" gradientUnits="userSpaceOnUse" x1="685.49" y1="507.08" x2="685.49" y2="487.6" gradientTransform="matrix(0.130641,0,0,0.130937,-23.384798,-7.926932)">
<stop offset="0" style="stop-color:rgb(0%,0%,0%);stop-opacity:0.121569;"/>
<stop offset="0.55" style="stop-color:rgb(0%,0%,0%);stop-opacity:0.0901961;"/>
<stop offset="1" style="stop-color:rgb(0%,0%,0%);stop-opacity:0.0196078;"/>
</linearGradient>
<linearGradient id="linear9" gradientUnits="userSpaceOnUse" x1="774.99" y1="484.73" x2="774.99" y2="425.15" gradientTransform="matrix(0.130641,0,0,0.130937,-23.384798,-7.926932)">
<stop offset="0" style="stop-color:rgb(0%,0%,0%);stop-opacity:0.121569;"/>
<stop offset="0.55" style="stop-color:rgb(0%,0%,0%);stop-opacity:0.0901961;"/>
<stop offset="1" style="stop-color:rgb(0%,0%,0%);stop-opacity:0.0196078;"/>
</linearGradient>
<mask id="mask15">
  <g filter="url(#alpha)">
<rect x="0" y="0" width="110" height="102" style="fill:rgb(0%,0%,0%);fill-opacity:0.501961;stroke:none;"/>
  </g>
</mask>
<clipPath id="clip18">
  <rect width="110" height="103"/>
</clipPath>
<g id="surface51" clip-path="url(#clip18)">
<path style=" stroke:none;fill-rule:nonzero;fill:rgb(27.843137%,90.196078%,69.411765%);fill-opacity:1;" d="M 1.832031 3.746094 C 1.832031 4.253906 1.421875 4.664062 0.914062 4.664062 C 0.410156 4.664062 0 4.253906 0 3.746094 C 0 3.238281 0.410156 2.828125 0.914062 2.828125 C 1.421875 2.828125 1.832031 3.238281 1.832031 3.746094 Z M 1.832031 3.746094 "/>
</g>
</defs>
<g id="surface1">
<use xlink:href="#surface6" mask="url(#mask0)"/>
<path style=" stroke:none;fill-rule:nonzero;fill:rgb(94.901961%,94.901961%,94.901961%);fill-opacity:1;" d="M 20.902344 18.121094 L 77.65625 18.121094 L 77.65625 94.269531 L 20.902344 94.269531 Z M 20.902344 18.121094 "/>
<path style=" stroke:none;fill-rule:nonzero;fill:rgb(87.843137%,87.843137%,87.843137%);fill-opacity:1;" d="M 25.324219 21.332031 L 44.855469 21.332031 L 44.855469 21.941406 L 25.324219 21.941406 Z M 25.324219 21.332031 "/>
<use xlink:href="#surface9" mask="url(#mask1)"/>
<path style=" stroke:none;fill-rule:nonzero;fill:rgb(87.843137%,87.843137%,87.843137%);fill-opacity:1;" d="M 47.753906 21.332031 L 67.28125 21.332031 L 67.28125 21.941406 L 47.753906 21.941406 Z M 47.753906 21.332031 "/>
<path style=" stroke:none;fill-rule:nonzero;fill:rgb(87.843137%,87.843137%,87.843137%);fill-opacity:1;" d="M 50.804688 38.765625 L 70.332031 38.765625 L 70.332031 39.375 L 50.804688 39.375 Z M 50.804688 38.765625 "/>
<path style=" stroke:none;fill-rule:nonzero;fill:rgb(87.843137%,87.843137%,87.843137%);fill-opacity:1;" d="M 51.261719 40.445312 L 70.789062 40.445312 L 70.789062 41.054688 L 51.261719 41.054688 Z M 51.261719 40.445312 "/>
<path style=" stroke:none;fill-rule:nonzero;fill:rgb(87.843137%,87.843137%,87.843137%);fill-opacity:1;" d="M 52.179688 42.128906 L 71.707031 42.128906 L 71.707031 42.738281 L 52.179688 42.738281 Z M 52.179688 42.128906 "/>
<path style=" stroke:none;fill-rule:nonzero;fill:rgb(87.843137%,87.843137%,87.843137%);fill-opacity:1;" d="M 50.804688 65.828125 L 70.332031 65.828125 L 70.332031 66.441406 L 50.804688 66.441406 Z M 50.804688 65.828125 "/>
<path style=" stroke:none;fill-rule:nonzero;fill:rgb(87.843137%,87.843137%,87.843137%);fill-opacity:1;" d="M 51.261719 67.511719 L 70.789062 67.511719 L 70.789062 68.121094 L 51.261719 68.121094 Z M 51.261719 67.511719 "/>
<path style=" stroke:none;fill-rule:nonzero;fill:rgb(87.843137%,87.843137%,87.843137%);fill-opacity:1;" d="M 52.179688 69.191406 L 71.707031 69.191406 L 71.707031 69.804688 L 52.179688 69.804688 Z M 52.179688 69.191406 "/>
<use xlink:href="#surface12" mask="url(#mask2)"/>
<path style=" stroke:none;fill-rule:nonzero;fill:rgb(96.078431%,96.078431%,96.078431%);fill-opacity:1;" d="M 25.609375 32.953125 L 46.03125 32.953125 L 46.03125 53.136719 L 25.609375 53.136719 Z M 25.609375 32.953125 "/>
<use xlink:href="#surface15" mask="url(#mask3)"/>
<path style=" stroke:none;fill-rule:nonzero;fill:rgb(100%,100%,100%);fill-opacity:1;" d="M 26.460938 34.328125 L 45.246094 34.328125 L 45.246094 47.019531 L 26.460938 47.019531 Z M 26.460938 34.328125 "/>
<g clip-path="url(#clip5)" clip-rule="nonzero">
<use xlink:href="#surface18" mask="url(#mask4)"/>
<use xlink:href="#surface21" mask="url(#mask5)"/>
</g>
<use xlink:href="#surface24" mask="url(#mask6)"/>
<path style=" stroke:none;fill-rule:nonzero;fill:rgb(96.078431%,96.078431%,96.078431%);fill-opacity:1;" d="M 25.609375 60.019531 L 46.03125 60.019531 L 46.03125 80.203125 L 25.609375 80.203125 Z M 25.609375 60.019531 "/>
<use xlink:href="#surface27" mask="url(#mask7)"/>
<path style=" stroke:none;fill-rule:nonzero;fill:rgb(100%,100%,100%);fill-opacity:1;" d="M 26.460938 61.394531 L 45.246094 61.394531 L 45.246094 74.085938 L 26.460938 74.085938 Z M 26.460938 61.394531 "/>
<g clip-path="url(#clip10)" clip-rule="nonzero">
<use xlink:href="#surface30" mask="url(#mask8)"/>
<use xlink:href="#surface33" mask="url(#mask9)"/>
</g>
<use xlink:href="#surface36" mask="url(#mask10)"/>
<path style=" stroke:none;fill-rule:nonzero;fill:rgb(100%,100%,100%);fill-opacity:1;" d="M 29.8125 89.039062 L 44.625 14.351562 L 100.289062 25.4375 L 85.480469 100.128906 Z M 29.8125 89.039062 "/>
<path style=" stroke:none;fill-rule:nonzero;fill:rgb(87.843137%,87.843137%,87.843137%);fill-opacity:1;" d="M 47.988281 18.601562 L 87.492188 26.472656 L 87.375 27.070312 L 47.867188 19.203125 Z M 47.988281 18.601562 "/>
<path style=" stroke:none;fill-rule:nonzero;fill:rgb(87.843137%,87.843137%,87.843137%);fill-opacity:1;" d="M 36.746094 75.296875 L 76.25 83.164062 L 76.132812 83.765625 L 36.628906 75.894531 Z M 36.746094 75.296875 "/>
<path style=" stroke:none;fill-rule:nonzero;fill:rgb(87.843137%,87.843137%,87.843137%);fill-opacity:1;" d="M 36.0625 78.746094 L 66.589844 84.824219 L 66.46875 85.425781 L 35.941406 79.34375 Z M 36.0625 78.746094 "/>
<use xlink:href="#surface39" mask="url(#mask11)"/>
<use xlink:href="#surface42" mask="url(#mask12)"/>
<path style=" stroke:none;fill-rule:nonzero;fill:rgb(87.843137%,87.843137%,87.843137%);fill-opacity:1;" d="M 46.621094 25.503906 L 82.234375 32.597656 L 82.113281 33.195312 L 46.5 26.101562 Z M 46.621094 25.503906 "/>
<use xlink:href="#surface45" mask="url(#mask13)"/>
<path style=" stroke:none;fill-rule:nonzero;fill:rgb(87.843137%,87.843137%,87.843137%);fill-opacity:1;" d="M 45.25 32.402344 L 84.757812 40.269531 L 84.636719 40.871094 L 45.132812 33.003906 Z M 45.25 32.402344 "/>
<use xlink:href="#surface48" mask="url(#mask14)"/>
<path style=" stroke:none;fill-rule:nonzero;fill:rgb(100%,100%,100%);fill-opacity:1;" d="M 48.933594 47.167969 L 83.949219 54.140625 L 79.992188 74.089844 L 44.976562 67.113281 Z M 48.933594 47.167969 "/>
<path style=" stroke:none;fill-rule:nonzero;fill:rgb(87.843137%,87.843137%,87.843137%);fill-opacity:1;" d="M 44.566406 35.851562 L 84.074219 43.722656 L 83.953125 44.320312 L 44.449219 36.453125 Z M 44.566406 35.851562 "/>
<path style=" stroke:none;fill-rule:nonzero;fill:rgb(42.352941%,38.823529%,100%);fill-opacity:1;" d="M 52.066406 50.597656 L 56.40625 51.460938 L 53.519531 66.011719 L 49.179688 65.144531 Z M 52.066406 50.597656 "/>
<path style=" stroke:none;fill-rule:nonzero;fill:rgb(22.745098%,82.352941%,62.352941%);fill-opacity:1;" d="M 58.894531 56.945312 L 63.234375 57.8125 L 61.300781 67.558594 L 56.960938 66.695312 Z M 58.894531 56.945312 "/>
<path style=" stroke:none;fill-rule:nonzero;fill:rgb(96.078431%,37.254902%,26.666667%);fill-opacity:1;" d="M 65.785156 62.996094 L 70.125 63.859375 L 69.082031 69.109375 L 64.742188 68.246094 Z M 65.785156 62.996094 "/>
<path style=" stroke:none;fill-rule:nonzero;fill:rgb(99.215686%,84.705882%,20.784314%);fill-opacity:1;" d="M 74.636719 59.148438 L 78.976562 60.011719 L 76.863281 70.660156 L 72.523438 69.796875 Z M 74.636719 59.148438 "/>
<path style=" stroke:none;fill-rule:nonzero;fill:url(#linear7);" d="M 91.636719 45.828125 C 87.835938 41.863281 82.597656 39.605469 77.109375 39.566406 C 71.625 39.523438 66.351562 41.703125 62.492188 45.609375 C 54.78125 53.398438 54.652344 66.078125 62.191406 74.03125 C 69.03125 81.246094 80.0625 82.464844 88.308594 76.921875 L 103.027344 92.265625 C 103.410156 92.664062 104.035156 92.675781 104.429688 92.296875 L 108.097656 88.757812 C 108.492188 88.378906 108.507812 87.75 108.125 87.355469 L 93.410156 72.007812 C 99.234375 64.007812 98.488281 52.96875 91.636719 45.828125 Z M 87.054688 70.503906 C 81.253906 76.09375 72.03125 75.910156 66.457031 70.097656 C 60.882812 64.285156 61.0625 55.042969 66.863281 49.457031 C 72.660156 43.867188 81.882812 44.046875 87.457031 49.859375 C 93.035156 55.671875 92.851562 64.917969 87.054688 70.503906 Z M 87.054688 70.503906 "/>
<path style=" stroke:none;fill-rule:nonzero;fill:url(#linear8);" d="M 66.167969 55.917969 C 64.53125 55.917969 64.527344 58.46875 66.167969 58.46875 C 67.808594 58.46875 67.808594 55.917969 66.167969 55.917969 Z M 66.167969 55.917969 "/>
<path style=" stroke:none;fill-rule:nonzero;fill:url(#linear9);" d="M 77.585938 47.742188 C 73.179688 47.644531 69.167969 49.859375 67.035156 53.207031 C 66.335938 54.300781 68.3125 55.265625 69.007812 54.179688 C 70.773438 51.40625 74.128906 49.648438 77.757812 49.738281 C 81.5625 49.835938 85.023438 52.015625 86.859375 55.042969 C 87.554688 56.191406 89.375 55.148438 88.6875 54.007812 C 86.457031 50.339844 82.140625 47.851562 77.585938 47.742188 Z M 77.585938 47.742188 "/>
<path style=" stroke:none;fill-rule:nonzero;fill:rgb(42.352941%,38.823529%,100%);fill-opacity:1;" d="M 93.234375 45.054688 C 89.433594 41.089844 84.195312 38.832031 78.707031 38.789062 C 73.222656 38.75 67.949219 40.929688 64.089844 44.835938 C 56.382812 52.621094 56.25 65.304688 63.789062 73.257812 C 70.628906 80.472656 81.660156 81.691406 89.90625 76.144531 L 104.625 91.492188 C 105.003906 91.886719 105.632812 91.898438 106.027344 91.519531 L 109.695312 87.984375 C 110.089844 87.605469 110.101562 86.976562 109.722656 86.578125 L 95 71.230469 C 100.828125 63.234375 100.082031 52.195312 93.234375 45.054688 Z M 88.652344 69.71875 C 82.851562 75.308594 73.628906 75.125 68.054688 69.3125 C 62.480469 63.5 62.660156 54.257812 68.460938 48.667969 C 74.257812 43.082031 83.480469 43.261719 89.054688 49.074219 C 94.632812 54.886719 94.449219 64.128906 88.652344 69.71875 Z M 88.652344 69.71875 "/>
<path style=" stroke:none;fill-rule:nonzero;fill:rgb(42.352941%,38.823529%,100%);fill-opacity:1;" d="M 67.765625 55.140625 C 66.128906 55.140625 66.125 57.695312 67.765625 57.695312 C 69.40625 57.695312 69.40625 55.140625 67.765625 55.140625 Z M 67.765625 55.140625 "/>
<path style=" stroke:none;fill-rule:nonzero;fill:rgb(42.352941%,38.823529%,100%);fill-opacity:1;" d="M 79.1875 46.96875 C 74.777344 46.867188 70.765625 49.085938 68.632812 52.433594 C 67.933594 53.523438 69.910156 54.488281 70.605469 53.402344 C 72.371094 50.632812 75.726562 48.871094 79.355469 48.964844 C 83.160156 49.058594 86.621094 51.242188 88.457031 54.269531 C 89.152344 55.417969 90.972656 54.371094 90.285156 53.230469 C 88.050781 49.554688 83.742188 47.066406 79.1875 46.96875 Z M 79.1875 46.96875 "/>
<path style=" stroke:none;fill-rule:nonzero;fill:rgb(27.843137%,90.196078%,69.411765%);fill-opacity:1;" d="M 15.867188 86.929688 L 16.324219 86.929688 L 16.324219 89.53125 L 15.867188 89.53125 Z M 15.867188 86.929688 "/>
<path style=" stroke:none;fill-rule:nonzero;fill:rgb(27.843137%,90.196078%,69.411765%);fill-opacity:1;" d="M 17.390625 88 L 17.390625 88.457031 L 14.800781 88.457031 L 14.800781 88 Z M 17.390625 88 "/>
<path style=" stroke:none;fill-rule:nonzero;fill:rgb(30.196078%,54.117647%,94.117647%);fill-opacity:1;" d="M 74.710938 1.039062 C 74.449219 0.925781 74.3125 0.632812 74.398438 0.363281 C 74.402344 0.339844 74.40625 0.320312 74.410156 0.296875 C 74.417969 0.175781 74.34375 0.0585938 74.226562 0.015625 C 74.109375 -0.0273438 73.976562 0.0117188 73.902344 0.109375 C 73.890625 0.128906 73.878906 0.148438 73.871094 0.167969 C 73.757812 0.429688 73.46875 0.5625 73.195312 0.480469 C 73.175781 0.472656 73.152344 0.46875 73.132812 0.46875 C 73.007812 0.457031 72.890625 0.535156 72.847656 0.652344 C 72.804688 0.769531 72.84375 0.902344 72.949219 0.976562 C 72.964844 0.988281 72.984375 1 73.003906 1.007812 C 73.265625 1.121094 73.398438 1.414062 73.316406 1.6875 C 73.308594 1.707031 73.304688 1.730469 73.304688 1.75 C 73.292969 1.878906 73.367188 1.996094 73.488281 2.039062 C 73.605469 2.082031 73.738281 2.039062 73.8125 1.933594 C 73.824219 1.917969 73.835938 1.898438 73.84375 1.878906 C 73.957031 1.617188 74.25 1.484375 74.523438 1.566406 C 74.542969 1.574219 74.5625 1.578125 74.585938 1.578125 C 74.707031 1.585938 74.824219 1.511719 74.867188 1.394531 C 74.910156 1.277344 74.871094 1.148438 74.769531 1.074219 C 74.753906 1.058594 74.730469 1.046875 74.710938 1.039062 Z M 74.710938 1.039062 "/>
<path style=" stroke:none;fill-rule:nonzero;fill:rgb(99.215686%,84.705882%,20.784314%);fill-opacity:1;" d="M 17.957031 20.308594 C 17.695312 20.195312 17.558594 19.902344 17.644531 19.628906 C 17.648438 19.609375 17.652344 19.585938 17.65625 19.566406 C 17.664062 19.441406 17.589844 19.324219 17.472656 19.28125 C 17.355469 19.238281 17.222656 19.277344 17.148438 19.378906 C 17.136719 19.394531 17.125 19.414062 17.117188 19.433594 C 17.003906 19.695312 16.710938 19.832031 16.441406 19.746094 C 16.417969 19.738281 16.398438 19.734375 16.378906 19.734375 C 16.253906 19.726562 16.136719 19.800781 16.09375 19.917969 C 16.050781 20.035156 16.089844 20.167969 16.191406 20.242188 C 16.207031 20.253906 16.226562 20.265625 16.246094 20.273438 C 16.507812 20.386719 16.640625 20.679688 16.558594 20.953125 C 16.550781 20.972656 16.546875 20.992188 16.546875 21.015625 C 16.539062 21.140625 16.613281 21.253906 16.730469 21.296875 C 16.84375 21.34375 16.976562 21.304688 17.050781 21.203125 C 17.0625 21.1875 17.074219 21.167969 17.082031 21.148438 C 17.195312 20.886719 17.488281 20.75 17.761719 20.835938 C 17.78125 20.839844 17.800781 20.84375 17.824219 20.847656 C 17.949219 20.855469 18.0625 20.78125 18.105469 20.664062 C 18.148438 20.546875 18.109375 20.414062 18.011719 20.339844 C 17.992188 20.328125 17.976562 20.316406 17.957031 20.308594 Z M 17.957031 20.308594 "/>
<path style=" stroke:none;fill-rule:nonzero;fill:rgb(99.215686%,84.705882%,20.784314%);fill-opacity:1;" d="M 98.664062 99.820312 C 98.402344 99.707031 98.265625 99.414062 98.351562 99.140625 C 98.355469 99.121094 98.359375 99.101562 98.363281 99.078125 C 98.371094 98.953125 98.296875 98.839844 98.179688 98.796875 C 98.0625 98.753906 97.929688 98.792969 97.855469 98.890625 C 97.84375 98.910156 97.832031 98.925781 97.824219 98.945312 C 97.710938 99.207031 97.421875 99.34375 97.148438 99.257812 C 97.128906 99.253906 97.105469 99.25 97.085938 99.246094 C 96.960938 99.238281 96.84375 99.3125 96.800781 99.429688 C 96.757812 99.546875 96.796875 99.679688 96.898438 99.753906 C 96.914062 99.765625 96.933594 99.777344 96.953125 99.785156 C 97.214844 99.898438 97.347656 100.191406 97.265625 100.464844 C 97.257812 100.484375 97.253906 100.507812 97.253906 100.527344 C 97.246094 100.652344 97.320312 100.769531 97.4375 100.8125 C 97.554688 100.855469 97.683594 100.816406 97.757812 100.714844 C 97.769531 100.699219 97.78125 100.679688 97.789062 100.660156 C 97.902344 100.398438 98.195312 100.265625 98.46875 100.347656 C 98.488281 100.355469 98.507812 100.359375 98.53125 100.359375 C 98.65625 100.367188 98.769531 100.292969 98.8125 100.175781 C 98.855469 100.058594 98.816406 99.925781 98.71875 99.851562 C 98.699219 99.839844 98.683594 99.828125 98.664062 99.820312 Z M 98.664062 99.820312 "/>
<path style=" stroke:none;fill-rule:nonzero;fill:rgb(96.078431%,37.254902%,26.666667%);fill-opacity:1;" d="M 42.871094 9.863281 C 42.871094 10.371094 42.460938 10.78125 41.957031 10.78125 C 41.449219 10.78125 41.039062 10.371094 41.039062 9.863281 C 41.039062 9.355469 41.449219 8.945312 41.957031 8.945312 C 42.460938 8.945312 42.871094 9.355469 42.871094 9.863281 Z M 42.871094 9.863281 "/>
<path style=" stroke:none;fill-rule:nonzero;fill:rgb(96.078431%,37.254902%,26.666667%);fill-opacity:1;" d="M 108.472656 21.332031 C 108.472656 21.835938 108.0625 22.25 107.558594 22.25 C 107.050781 22.25 106.640625 21.835938 106.640625 21.332031 C 106.640625 20.824219 107.050781 20.414062 107.558594 20.414062 C 108.0625 20.414062 108.472656 20.824219 108.472656 21.332031 Z M 108.472656 21.332031 "/>
<path style=" stroke:none;fill-rule:nonzero;fill:rgb(30.196078%,54.117647%,94.117647%);fill-opacity:1;" d="M 103.289062 48.703125 C 103.289062 49.207031 102.878906 49.621094 102.371094 49.621094 C 101.867188 49.621094 101.457031 49.207031 101.457031 48.703125 C 101.457031 48.195312 101.867188 47.785156 102.371094 47.785156 C 102.878906 47.785156 103.289062 48.195312 103.289062 48.703125 Z M 103.289062 48.703125 "/>
<use xlink:href="#surface51" mask="url(#mask15)"/>
</g>
</svg>
