<?xml version="1.0" encoding="UTF-8"?>
<svg xmlns="http://www.w3.org/2000/svg" xmlns:xlink="http://www.w3.org/1999/xlink" width="100" height="82" viewBox="0 0 100 82" version="1.1">
<defs>
<filter id="alpha" filterUnits="objectBoundingBox" x="0%" y="0%" width="100%" height="100%">
  <feColorMatrix type="matrix" in="SourceGraphic" values="0 0 0 0 1 0 0 0 0 1 0 0 0 0 1 0 0 0 1 0"/>
</filter>
<mask id="mask0">
  <g filter="url(#alpha)">
<rect x="0" y="0" width="100" height="82" style="fill:rgb(0%,0%,0%);fill-opacity:0.101961;stroke:none;"/>
  </g>
</mask>
<clipPath id="clip1">
  <rect x="0" y="0" width="100" height="82"/>
</clipPath>
<g id="surface5" clip-path="url(#clip1)">
<path style=" stroke:none;fill-rule:nonzero;fill:rgb(42.352941%,38.823529%,100%);fill-opacity:1;" d="M 95.597656 76.394531 C 93.546875 74.332031 91.199219 73.351562 90.355469 74.199219 C 89.511719 75.046875 90.488281 77.40625 92.539062 79.46875 C 94.589844 81.527344 96.9375 82.511719 97.78125 81.664062 C 98.628906 80.8125 97.648438 78.453125 95.597656 76.394531 Z M 95.597656 76.394531 "/>
</g>
<mask id="mask1">
  <g filter="url(#alpha)">
<rect x="0" y="0" width="100" height="82" style="fill:rgb(0%,0%,0%);fill-opacity:0.101961;stroke:none;"/>
  </g>
</mask>
<clipPath id="clip2">
  <rect x="0" y="0" width="100" height="82"/>
</clipPath>
<g id="surface8" clip-path="url(#clip2)">
<path style=" stroke:none;fill-rule:nonzero;fill:rgb(0%,0%,0%);fill-opacity:1;" d="M 88.851562 56.222656 C 88.851562 57.476562 89.269531 58.691406 90.042969 59.675781 C 88.25 61.96875 88.511719 65.261719 90.640625 67.238281 C 92.773438 69.21875 96.058594 69.21875 98.191406 67.238281 C 100.320312 65.261719 100.582031 61.96875 98.789062 59.675781 C 99.535156 58.726562 88.851562 55.59375 88.851562 56.222656 Z M 88.851562 56.222656 "/>
</g>
<mask id="mask2">
  <g filter="url(#alpha)">
<rect x="0" y="0" width="100" height="82" style="fill:rgb(0%,0%,0%);fill-opacity:0.101961;stroke:none;"/>
  </g>
</mask>
<clipPath id="clip3">
  <rect x="0" y="0" width="100" height="82"/>
</clipPath>
<g id="surface11" clip-path="url(#clip3)">
<path style=" stroke:none;fill-rule:nonzero;fill:rgb(0%,0%,0%);fill-opacity:1;" d="M 65.257812 74.605469 L 33.15625 81.183594 L 33.871094 0 L 62.875 6.089844 L 63.976562 5.855469 Z M 65.257812 74.605469 "/>
</g>
<mask id="mask3">
  <g filter="url(#alpha)">
<rect x="0" y="0" width="100" height="82" style="fill:rgb(0%,0%,0%);fill-opacity:0.301961;stroke:none;"/>
  </g>
</mask>
<clipPath id="clip4">
  <rect x="0" y="0" width="100" height="82"/>
</clipPath>
<g id="surface14" clip-path="url(#clip4)">
<path style="fill:none;stroke-width:3;stroke-linecap:butt;stroke-linejoin:miter;stroke:rgb(26.666667%,25.098039%,32.54902%);stroke-opacity:1;stroke-miterlimit:10;" d="M 573.349219 137.998666 L 573.4575 347.510957 L 660.479531 347.510957 L 660.479531 261.48628 L 809.474531 261.48628 L 826.98 239.073171 " transform="matrix(0.108225,0,0,0.108753,0,0)"/>
<path style="fill:none;stroke-width:3;stroke-linecap:butt;stroke-linejoin:miter;stroke:rgb(26.666667%,25.098039%,32.54902%);stroke-opacity:1;stroke-miterlimit:10;" d="M 88.971094 204.483708 L 412.479375 204.483708 L 432.475313 195.504097 L 440.452031 195.504097 L 440.452031 397.509432 L 580.459687 397.509432 L 586.487344 415.504573 L 586.487344 506.485995 L 694.479844 506.485995 L 694.479844 618.982565 " transform="matrix(0.108225,0,0,0.108753,0,0)"/>
<path style="fill:none;stroke-width:3;stroke-linecap:butt;stroke-linejoin:miter;stroke:rgb(26.666667%,25.098039%,32.54902%);stroke-opacity:1;stroke-miterlimit:10;" d="M 483.187031 618.982565 L 483.187031 397.509432 " transform="matrix(0.108225,0,0,0.108753,0,0)"/>
<path style="fill:none;stroke-width:3;stroke-linecap:butt;stroke-linejoin:miter;stroke:rgb(26.666667%,25.098039%,32.54902%);stroke-opacity:1;stroke-miterlimit:10;" d="M 826.98 559.645293 L 483.187031 559.645293 " transform="matrix(0.108225,0,0,0.108753,0,0)"/>
<path style="fill:none;stroke-width:3;stroke-linecap:butt;stroke-linejoin:miter;stroke:rgb(26.666667%,25.098039%,32.54902%);stroke-opacity:1;stroke-miterlimit:10;" d="M 740.860312 137.998666 L 740.860312 618.982565 " transform="matrix(0.108225,0,0,0.108753,0,0)"/>
<path style="fill:none;stroke-width:3;stroke-linecap:butt;stroke-linejoin:miter;stroke:rgb(26.666667%,25.098039%,32.54902%);stroke-opacity:1;stroke-miterlimit:10;" d="M 87.960469 517.153773 L 826.98 517.153773 " transform="matrix(0.108225,0,0,0.108753,0,0)"/>
<path style="fill:none;stroke-width:3;stroke-linecap:butt;stroke-linejoin:miter;stroke:rgb(26.666667%,25.098039%,32.54902%);stroke-opacity:1;stroke-miterlimit:10;" d="M 177.906094 618.982565 L 177.906094 137.998666 " transform="matrix(0.108225,0,0,0.108753,0,0)"/>
<path style="fill:none;stroke-width:3;stroke-linecap:butt;stroke-linejoin:miter;stroke:rgb(26.666667%,25.098039%,32.54902%);stroke-opacity:1;stroke-miterlimit:10;" d="M 349.67625 137.998666 L 349.67625 618.982565 " transform="matrix(0.108225,0,0,0.108753,0,0)"/>
<path style="fill:none;stroke-width:3;stroke-linecap:butt;stroke-linejoin:miter;stroke:rgb(26.666667%,25.098039%,32.54902%);stroke-opacity:1;stroke-miterlimit:10;" d="M 88.971094 259.510766 L 660.479531 261.48628 " transform="matrix(0.108225,0,0,0.108753,0,0)"/>
<path style="fill:none;stroke-width:3;stroke-linecap:butt;stroke-linejoin:miter;stroke:rgb(26.666667%,25.098039%,32.54902%);stroke-opacity:1;stroke-miterlimit:10;" d="M 255.291094 138.860709 L 255.291094 618.982565 " transform="matrix(0.108225,0,0,0.108753,0,0)"/>
<path style="fill:none;stroke-width:3;stroke-linecap:butt;stroke-linejoin:miter;stroke:rgb(26.666667%,25.098039%,32.54902%);stroke-opacity:1;stroke-miterlimit:10;" d="M 87.960469 370.822027 L 349.67625 370.822027 L 483.187031 517.153773 " transform="matrix(0.108225,0,0,0.108753,0,0)"/>
<path style="fill:none;stroke-width:3;stroke-linecap:butt;stroke-linejoin:miter;stroke:rgb(26.666667%,25.098039%,32.54902%);stroke-opacity:1;stroke-miterlimit:10;" d="M 512.134219 137.998666 L 512.134219 397.509432 " transform="matrix(0.108225,0,0,0.108753,0,0)"/>
<path style="fill:none;stroke-width:3;stroke-linecap:butt;stroke-linejoin:miter;stroke:rgb(26.666667%,25.098039%,32.54902%);stroke-opacity:1;stroke-miterlimit:10;" d="M 483.187031 443.9879 L 826.98 443.9879 " transform="matrix(0.108225,0,0,0.108753,0,0)"/>
</g>
<mask id="mask4">
  <g filter="url(#alpha)">
<rect x="0" y="0" width="100" height="82" style="fill:rgb(0%,0%,0%);fill-opacity:0.101961;stroke:none;"/>
  </g>
</mask>
<clipPath id="clip5">
  <rect x="0" y="0" width="100" height="82"/>
</clipPath>
<g id="surface17" clip-path="url(#clip5)">
<path style=" stroke:none;fill-rule:nonzero;fill:rgb(0%,0%,0%);fill-opacity:1;" d="M 58.003906 23.273438 C 54.703125 23.273438 52.023438 25.964844 52.023438 29.285156 C 52.023438 32.605469 58.003906 43.390625 58.003906 43.390625 C 58.003906 43.390625 63.988281 32.609375 63.988281 29.285156 C 63.988281 25.964844 61.308594 23.273438 58.003906 23.273438 Z M 58.003906 31.847656 C 56.550781 31.847656 55.375 30.664062 55.375 29.203125 C 55.375 27.742188 56.550781 26.558594 58.003906 26.558594 C 59.460938 26.558594 60.636719 27.742188 60.636719 29.203125 C 60.636719 30.664062 59.457031 31.847656 58.003906 31.847656 Z M 58.003906 31.847656 "/>
</g>
<mask id="mask5">
  <g filter="url(#alpha)">
<rect x="0" y="0" width="100" height="82" style="fill:rgb(0%,0%,0%);fill-opacity:0.101961;stroke:none;"/>
  </g>
</mask>
<clipPath id="clip6">
  <rect x="0" y="0" width="100" height="82"/>
</clipPath>
<g id="surface20" clip-path="url(#clip6)">
<path style=" stroke:none;fill-rule:nonzero;fill:rgb(42.352941%,38.823529%,100%);fill-opacity:1;" d="M 58.710938 78.324219 C 58.386719 77.5625 56.632812 77.589844 54.796875 78.386719 C 52.960938 79.179688 51.738281 80.441406 52.0625 81.199219 C 52.386719 81.960938 54.140625 81.933594 55.976562 81.136719 C 57.8125 80.34375 59.039062 79.082031 58.710938 78.324219 Z M 58.710938 78.324219 "/>
</g>
<mask id="mask6">
  <g filter="url(#alpha)">
<rect x="0" y="0" width="100" height="82" style="fill:rgb(0%,0%,0%);fill-opacity:0.101961;stroke:none;"/>
  </g>
</mask>
<clipPath id="clip7">
  <rect x="0" y="0" width="100" height="82"/>
</clipPath>
<g id="surface23" clip-path="url(#clip7)">
<path style=" stroke:none;fill-rule:nonzero;fill:rgb(0%,0%,0%);fill-opacity:1;" d="M 59.195312 65.019531 C 59.199219 65.882812 58.910156 66.722656 58.375 67.402344 C 59.613281 68.980469 59.433594 71.25 57.964844 72.613281 C 56.496094 73.976562 54.230469 73.976562 52.761719 72.613281 C 51.289062 71.25 51.113281 68.980469 52.347656 67.402344 C 51.835938 66.75 59.195312 64.589844 59.195312 65.019531 Z M 59.195312 65.019531 "/>
</g>
<mask id="mask7">
  <g filter="url(#alpha)">
<rect x="0" y="0" width="100" height="82" style="fill:rgb(0%,0%,0%);fill-opacity:0.101961;stroke:none;"/>
  </g>
</mask>
<clipPath id="clip8">
  <rect x="0" y="0" width="100" height="82"/>
</clipPath>
<g id="surface26" clip-path="url(#clip8)">
<path style=" stroke:none;fill-rule:nonzero;fill:rgb(42.352941%,38.823529%,100%);fill-opacity:1;" d="M 6.746094 74 C 4.695312 71.941406 2.347656 70.957031 1.503906 71.804688 C 0.65625 72.65625 1.636719 75.015625 3.6875 77.074219 C 5.738281 79.136719 8.085938 80.117188 8.929688 79.269531 C 9.773438 78.421875 8.796875 76.0625 6.746094 74 Z M 6.746094 74 "/>
</g>
<mask id="mask8">
  <g filter="url(#alpha)">
<rect x="0" y="0" width="100" height="82" style="fill:rgb(0%,0%,0%);fill-opacity:0.101961;stroke:none;"/>
  </g>
</mask>
<clipPath id="clip9">
  <rect x="0" y="0" width="100" height="82"/>
</clipPath>
<g id="surface29" clip-path="url(#clip9)">
<path style=" stroke:none;fill-rule:nonzero;fill:rgb(0%,0%,0%);fill-opacity:1;" d="M 0 53.828125 C -0.00390625 55.082031 0.417969 56.300781 1.191406 57.285156 C -0.601562 59.578125 -0.34375 62.867188 1.789062 64.847656 C 3.917969 66.824219 7.207031 66.824219 9.335938 64.847656 C 11.46875 62.867188 11.730469 59.578125 9.933594 57.285156 C 10.679688 56.335938 0 53.199219 0 53.828125 Z M 0 53.828125 "/>
</g>
</defs>
<g id="surface1">
<use xlink:href="#surface5" mask="url(#mask0)"/>
<path style=" stroke:none;fill-rule:nonzero;fill:rgb(24.705882%,23.921569%,33.72549%);fill-opacity:1;" d="M 95.601562 76.746094 C 95.601562 75.902344 95.082031 75.21875 94.441406 75.21875 C 93.800781 75.21875 93.277344 75.902344 93.277344 76.746094 C 93.277344 77.589844 93.800781 78.273438 94.441406 78.273438 C 95.082031 78.273438 95.601562 77.589844 95.601562 76.746094 Z M 95.601562 76.746094 "/>
<path style=" stroke:none;fill-rule:nonzero;fill:rgb(24.705882%,23.921569%,33.72549%);fill-opacity:1;" d="M 95.601562 74.878906 C 95.601562 74.035156 95.082031 73.351562 94.441406 73.351562 C 93.800781 73.351562 93.277344 74.035156 93.277344 74.878906 C 93.277344 75.722656 93.800781 76.40625 94.441406 76.40625 C 95.082031 76.40625 95.601562 75.722656 95.601562 74.878906 Z M 95.601562 74.878906 "/>
<path style=" stroke:none;fill-rule:nonzero;fill:rgb(24.705882%,23.921569%,33.72549%);fill-opacity:1;" d="M 95.601562 73.011719 C 95.601562 72.167969 95.082031 71.484375 94.441406 71.484375 C 93.800781 71.484375 93.277344 72.167969 93.277344 73.011719 C 93.277344 73.855469 93.800781 74.539062 94.441406 74.539062 C 95.082031 74.539062 95.601562 73.855469 95.601562 73.011719 Z M 95.601562 73.011719 "/>
<path style=" stroke:none;fill-rule:nonzero;fill:rgb(24.705882%,23.921569%,33.72549%);fill-opacity:1;" d="M 95.601562 71.144531 C 95.601562 70.300781 95.082031 69.617188 94.441406 69.617188 C 93.800781 69.617188 93.277344 70.300781 93.277344 71.144531 C 93.277344 71.988281 93.800781 72.671875 94.441406 72.671875 C 95.082031 72.671875 95.601562 71.988281 95.601562 71.144531 Z M 95.601562 71.144531 "/>
<path style=" stroke:none;fill-rule:nonzero;fill:rgb(24.705882%,23.921569%,33.72549%);fill-opacity:1;" d="M 95.601562 69.277344 C 95.601562 68.433594 95.082031 67.75 94.441406 67.75 C 93.800781 67.75 93.277344 68.433594 93.277344 69.277344 C 93.277344 70.121094 93.800781 70.804688 94.441406 70.804688 C 95.082031 70.804688 95.601562 70.121094 95.601562 69.277344 Z M 95.601562 69.277344 "/>
<path style=" stroke:none;fill-rule:nonzero;fill:rgb(24.705882%,23.921569%,33.72549%);fill-opacity:1;" d="M 95.601562 67.410156 C 95.601562 66.566406 95.082031 65.882812 94.441406 65.882812 C 93.800781 65.882812 93.277344 66.566406 93.277344 67.410156 C 93.277344 68.253906 93.800781 68.9375 94.441406 68.9375 C 95.082031 68.9375 95.601562 68.253906 95.601562 67.410156 Z M 95.601562 67.410156 "/>
<path style=" stroke:none;fill-rule:nonzero;fill:rgb(24.705882%,23.921569%,33.72549%);fill-opacity:1;" d="M 95.601562 65.542969 C 95.601562 64.699219 95.082031 64.015625 94.441406 64.015625 C 93.800781 64.015625 93.277344 64.699219 93.277344 65.542969 C 93.277344 66.386719 93.800781 67.070312 94.441406 67.070312 C 95.082031 67.070312 95.601562 66.386719 95.601562 65.542969 Z M 95.601562 65.542969 "/>
<path style=" stroke:none;fill-rule:nonzero;fill:rgb(42.352941%,38.823529%,100%);fill-opacity:1;" d="M 98.789062 52.765625 C 98.945312 52.5625 99.089844 52.347656 99.222656 52.125 L 96.167969 51.621094 L 99.46875 51.644531 C 100.109375 50.246094 100.148438 48.644531 99.578125 47.214844 L 95.152344 49.523438 L 99.230469 46.507812 C 98.191406 44.695312 96.226562 43.621094 94.148438 43.71875 C 92.066406 43.820312 90.214844 45.082031 89.351562 46.984375 C 88.488281 48.890625 88.753906 51.121094 90.042969 52.765625 C 89.796875 53.082031 89.582031 53.421875 89.410156 53.785156 L 93.371094 55.851562 L 89.148438 54.425781 C 88.546875 56.214844 88.882812 58.191406 90.046875 59.675781 C 88.253906 61.964844 88.511719 65.257812 90.644531 67.238281 C 92.777344 69.214844 96.0625 69.214844 98.191406 67.238281 C 100.324219 65.257812 100.585938 61.964844 98.792969 59.675781 C 100.378906 57.648438 100.378906 54.789062 98.792969 52.761719 Z M 98.789062 52.765625 "/>
<use xlink:href="#surface8" mask="url(#mask1)"/>
<path style=" stroke:none;fill-rule:nonzero;fill:rgb(26.666667%,25.098039%,32.54902%);fill-opacity:1;" d="M 91.664062 0 L 91.664062 78.300781 L 65.257812 74.605469 L 33.15625 81.183594 L 32.898438 81.238281 L 7.355469 74.167969 L 7.355469 6.089844 L 33.871094 0 L 62.875 6.089844 L 63.976562 5.855469 Z M 91.664062 0 "/>
<path style=" stroke:none;fill-rule:nonzero;fill:rgb(100%,100%,100%);fill-opacity:1;" d="M 87.226562 4.277344 L 87.226562 74.335938 L 63.597656 71.027344 L 34.878906 76.914062 L 34.644531 76.960938 L 11.792969 70.636719 L 11.792969 9.726562 L 35.519531 4.277344 L 61.46875 9.726562 L 62.457031 9.515625 Z M 87.226562 4.277344 "/>
<use xlink:href="#surface11" mask="url(#mask2)"/>
<use xlink:href="#surface14" mask="url(#mask3)"/>
<path style=" stroke:none;fill-rule:nonzero;fill:rgb(42.352941%,38.823529%,100%);fill-opacity:1;" d="M 63.417969 48.070312 L 52.484375 48.070312 L 52.484375 43.285156 L 62.820312 43.230469 L 63.472656 45.078125 Z M 63.417969 48.070312 "/>
<path style=" stroke:none;fill-rule:nonzero;fill:rgb(42.352941%,38.823529%,100%);fill-opacity:1;" d="M 58.003906 23.273438 C 54.703125 23.273438 52.023438 25.964844 52.023438 29.285156 C 52.023438 32.605469 58.003906 43.390625 58.003906 43.390625 C 58.003906 43.390625 63.988281 32.609375 63.988281 29.285156 C 63.988281 25.964844 61.308594 23.273438 58.003906 23.273438 Z M 58.003906 31.847656 C 56.550781 31.847656 55.375 30.664062 55.375 29.203125 C 55.375 27.742188 56.550781 26.558594 58.003906 26.558594 C 59.460938 26.558594 60.636719 27.742188 60.636719 29.203125 C 60.636719 30.664062 59.457031 31.847656 58.003906 31.847656 Z M 58.003906 31.847656 "/>
<use xlink:href="#surface17" mask="url(#mask4)"/>
<path style=" stroke:none;fill-rule:nonzero;fill:rgb(42.352941%,38.823529%,100%);fill-opacity:1;" d="M 58.003906 24.144531 C 54.703125 24.144531 52.023438 26.835938 52.023438 30.15625 C 52.023438 33.476562 58.003906 44.261719 58.003906 44.261719 C 58.003906 44.261719 63.988281 33.480469 63.988281 30.15625 C 63.988281 26.835938 61.308594 24.144531 58.003906 24.144531 Z M 58.003906 32.71875 C 56.550781 32.71875 55.375 31.535156 55.375 30.074219 C 55.375 28.613281 56.550781 27.429688 58.003906 27.429688 C 59.460938 27.429688 60.636719 28.613281 60.636719 30.074219 C 60.636719 31.535156 59.457031 32.71875 58.003906 32.71875 Z M 58.003906 32.71875 "/>
<use xlink:href="#surface20" mask="url(#mask5)"/>
<path style=" stroke:none;fill-rule:nonzero;fill:rgb(24.705882%,23.921569%,33.72549%);fill-opacity:1;" d="M 56.144531 79.167969 C 56.144531 78.585938 55.789062 78.117188 55.34375 78.117188 C 54.902344 78.117188 54.542969 78.585938 54.542969 79.167969 C 54.542969 79.75 54.902344 80.222656 55.34375 80.222656 C 55.789062 80.222656 56.144531 79.75 56.144531 79.167969 Z M 56.144531 79.167969 "/>
<path style=" stroke:none;fill-rule:nonzero;fill:rgb(24.705882%,23.921569%,33.72549%);fill-opacity:1;" d="M 56.144531 77.882812 C 56.144531 77.300781 55.789062 76.828125 55.34375 76.828125 C 54.902344 76.828125 54.542969 77.300781 54.542969 77.882812 C 54.542969 78.464844 54.902344 78.933594 55.34375 78.933594 C 55.789062 78.933594 56.144531 78.464844 56.144531 77.882812 Z M 56.144531 77.882812 "/>
<path style=" stroke:none;fill-rule:nonzero;fill:rgb(24.705882%,23.921569%,33.72549%);fill-opacity:1;" d="M 56.144531 76.59375 C 56.144531 76.011719 55.789062 75.542969 55.34375 75.542969 C 54.902344 75.542969 54.542969 76.011719 54.542969 76.59375 C 54.542969 77.175781 54.902344 77.648438 55.34375 77.648438 C 55.789062 77.648438 56.144531 77.175781 56.144531 76.59375 Z M 56.144531 76.59375 "/>
<path style=" stroke:none;fill-rule:nonzero;fill:rgb(24.705882%,23.921569%,33.72549%);fill-opacity:1;" d="M 56.144531 75.308594 C 56.144531 74.726562 55.789062 74.253906 55.34375 74.253906 C 54.902344 74.253906 54.542969 74.726562 54.542969 75.308594 C 54.542969 75.890625 54.902344 76.359375 55.34375 76.359375 C 55.789062 76.359375 56.144531 75.890625 56.144531 75.308594 Z M 56.144531 75.308594 "/>
<path style=" stroke:none;fill-rule:nonzero;fill:rgb(24.705882%,23.921569%,33.72549%);fill-opacity:1;" d="M 56.144531 74.019531 C 56.144531 73.4375 55.789062 72.96875 55.34375 72.96875 C 54.902344 72.96875 54.542969 73.4375 54.542969 74.019531 C 54.542969 74.601562 54.902344 75.074219 55.34375 75.074219 C 55.789062 75.074219 56.144531 74.601562 56.144531 74.019531 Z M 56.144531 74.019531 "/>
<path style=" stroke:none;fill-rule:nonzero;fill:rgb(24.705882%,23.921569%,33.72549%);fill-opacity:1;" d="M 56.144531 72.734375 C 56.144531 72.152344 55.789062 71.679688 55.34375 71.679688 C 54.902344 71.679688 54.542969 72.152344 54.542969 72.734375 C 54.542969 73.316406 54.902344 73.785156 55.34375 73.785156 C 55.789062 73.785156 56.144531 73.316406 56.144531 72.734375 Z M 56.144531 72.734375 "/>
<path style=" stroke:none;fill-rule:nonzero;fill:rgb(24.705882%,23.921569%,33.72549%);fill-opacity:1;" d="M 56.144531 71.449219 C 56.144531 70.867188 55.789062 70.394531 55.34375 70.394531 C 54.902344 70.394531 54.542969 70.867188 54.542969 71.449219 C 54.542969 72.027344 54.902344 72.5 55.34375 72.5 C 55.789062 72.5 56.144531 72.027344 56.144531 71.449219 Z M 56.144531 71.449219 "/>
<path style=" stroke:none;fill-rule:nonzero;fill:rgb(42.352941%,38.823529%,100%);fill-opacity:1;" d="M 52.347656 62.640625 C 52.238281 62.5 52.140625 62.355469 52.050781 62.203125 L 54.152344 61.855469 L 51.882812 61.875 C 51.441406 60.910156 51.414062 59.804688 51.808594 58.820312 L 54.859375 60.40625 L 52.046875 58.328125 C 52.765625 57.078125 54.117188 56.335938 55.550781 56.40625 C 56.984375 56.476562 58.257812 57.34375 58.855469 58.65625 C 59.449219 59.96875 59.265625 61.507812 58.378906 62.640625 C 58.546875 62.859375 58.691406 63.09375 58.8125 63.34375 L 56.082031 64.769531 L 58.992188 63.789062 C 59.410156 65.023438 59.175781 66.382812 58.375 67.40625 C 59.613281 68.988281 59.433594 71.257812 57.964844 72.621094 C 56.496094 73.984375 54.230469 73.984375 52.761719 72.621094 C 51.289062 71.257812 51.113281 68.988281 52.347656 67.40625 C 51.253906 66.007812 51.253906 64.039062 52.347656 62.644531 Z M 52.347656 62.640625 "/>
<use xlink:href="#surface23" mask="url(#mask6)"/>
<use xlink:href="#surface26" mask="url(#mask7)"/>
<path style=" stroke:none;fill-rule:nonzero;fill:rgb(24.705882%,23.921569%,33.72549%);fill-opacity:1;" d="M 6.75 74.355469 C 6.75 73.511719 6.230469 72.828125 5.585938 72.828125 C 4.945312 72.828125 4.425781 73.511719 4.425781 74.355469 C 4.425781 75.199219 4.945312 75.882812 5.585938 75.882812 C 6.230469 75.882812 6.75 75.199219 6.75 74.355469 Z M 6.75 74.355469 "/>
<path style=" stroke:none;fill-rule:nonzero;fill:rgb(24.705882%,23.921569%,33.72549%);fill-opacity:1;" d="M 6.75 72.488281 C 6.75 71.644531 6.230469 70.960938 5.585938 70.960938 C 4.945312 70.960938 4.425781 71.644531 4.425781 72.488281 C 4.425781 73.332031 4.945312 74.015625 5.585938 74.015625 C 6.230469 74.015625 6.75 73.332031 6.75 72.488281 Z M 6.75 72.488281 "/>
<path style=" stroke:none;fill-rule:nonzero;fill:rgb(24.705882%,23.921569%,33.72549%);fill-opacity:1;" d="M 6.75 70.621094 C 6.75 69.777344 6.230469 69.09375 5.585938 69.09375 C 4.945312 69.09375 4.425781 69.777344 4.425781 70.621094 C 4.425781 71.464844 4.945312 72.148438 5.585938 72.148438 C 6.230469 72.148438 6.75 71.464844 6.75 70.621094 Z M 6.75 70.621094 "/>
<path style=" stroke:none;fill-rule:nonzero;fill:rgb(24.705882%,23.921569%,33.72549%);fill-opacity:1;" d="M 6.75 68.753906 C 6.75 67.910156 6.230469 67.226562 5.585938 67.226562 C 4.945312 67.226562 4.425781 67.910156 4.425781 68.753906 C 4.425781 69.597656 4.945312 70.28125 5.585938 70.28125 C 6.230469 70.28125 6.75 69.597656 6.75 68.753906 Z M 6.75 68.753906 "/>
<path style=" stroke:none;fill-rule:nonzero;fill:rgb(24.705882%,23.921569%,33.72549%);fill-opacity:1;" d="M 6.75 66.886719 C 6.75 66.042969 6.230469 65.359375 5.585938 65.359375 C 4.945312 65.359375 4.425781 66.042969 4.425781 66.886719 C 4.425781 67.730469 4.945312 68.414062 5.585938 68.414062 C 6.230469 68.414062 6.75 67.730469 6.75 66.886719 Z M 6.75 66.886719 "/>
<path style=" stroke:none;fill-rule:nonzero;fill:rgb(24.705882%,23.921569%,33.72549%);fill-opacity:1;" d="M 6.75 65.019531 C 6.75 64.175781 6.230469 63.488281 5.585938 63.488281 C 4.945312 63.488281 4.425781 64.175781 4.425781 65.019531 C 4.425781 65.863281 4.945312 66.546875 5.585938 66.546875 C 6.230469 66.546875 6.75 65.863281 6.75 65.019531 Z M 6.75 65.019531 "/>
<path style=" stroke:none;fill-rule:nonzero;fill:rgb(24.705882%,23.921569%,33.72549%);fill-opacity:1;" d="M 6.75 63.152344 C 6.75 62.308594 6.230469 61.621094 5.585938 61.621094 C 4.945312 61.621094 4.425781 62.308594 4.425781 63.152344 C 4.425781 63.996094 4.945312 64.679688 5.585938 64.679688 C 6.230469 64.679688 6.75 63.996094 6.75 63.152344 Z M 6.75 63.152344 "/>
<path style=" stroke:none;fill-rule:nonzero;fill:rgb(42.352941%,38.823529%,100%);fill-opacity:1;" d="M 9.933594 50.371094 C 10.09375 50.167969 10.238281 49.957031 10.367188 49.734375 L 7.316406 49.230469 L 10.617188 49.253906 C 11.257812 47.855469 11.296875 46.253906 10.726562 44.824219 L 6.296875 47.132812 L 10.378906 44.117188 C 9.335938 42.304688 7.375 41.226562 5.292969 41.328125 C 3.214844 41.429688 1.363281 42.6875 0.5 44.59375 C -0.367188 46.496094 -0.0976562 48.726562 1.191406 50.371094 C 0.941406 50.6875 0.730469 51.03125 0.554688 51.390625 L 4.515625 53.457031 L 0.296875 52.03125 C -0.304688 53.824219 0.03125 55.796875 1.195312 57.28125 C -0.601562 59.574219 -0.339844 62.867188 1.792969 64.84375 C 3.921875 66.824219 7.210938 66.824219 9.339844 64.84375 C 11.472656 62.867188 11.730469 59.574219 9.9375 57.28125 C 11.527344 55.253906 11.527344 52.398438 9.9375 50.371094 Z M 9.933594 50.371094 "/>
<use xlink:href="#surface29" mask="url(#mask8)"/>
</g>
</svg>
